<svg xmlns="http://www.w3.org/2000/svg" viewBox="0 0 64 64">
  <rect width="64" height="64" rx="14" fill="#059669"/>
  <g transform="translate(12,10)">
    <!-- Left page -->
    <path d="M0 6 Q0 0 8 0 L20 0 L20 44 Q20 44 12 44 L0 44 Z" fill="#fff" opacity="0.95"/>
    <!-- Right page -->
    <path d="M40 6 Q40 0 32 0 L20 0 L20 44 Q20 44 28 44 L40 44 Z" fill="#f0fdf4"/>
    <!-- Spine -->
    <line x1="20" y1="0" x2="20" y2="44" stroke="#059669" stroke-width="1.5"/>
    <!-- Left page lines -->
    <line x1="5" y1="12" x2="17" y2="12" stroke="#059669" stroke-width="1.2" stroke-linecap="round" opacity="0.6"/>
    <line x1="5" y1="18" x2="17" y2="18" stroke="#059669" stroke-width="1.2" stroke-linecap="round" opacity="0.6"/>
    <line x1="5" y1="24" x2="17" y2="24" stroke="#059669" stroke-width="1.2" stroke-linecap="round" opacity="0.6"/>
    <line x1="5" y1="30" x2="14" y2="30" stroke="#059669" stroke-width="1.2" stroke-linecap="round" opacity="0.6"/>
    <line x1="5" y1="36" x2="16" y2="36" stroke="#059669" stroke-width="1.2" stroke-linecap="round" opacity="0.6"/>
    <!-- Right page lines -->
    <line x1="23" y1="12" x2="35" y2="12" stroke="#059669" stroke-width="1.2" stroke-linecap="round" opacity="0.6"/>
    <line x1="23" y1="18" x2="35" y2="18" stroke="#059669" stroke-width="1.2" stroke-linecap="round" opacity="0.6"/>
    <line x1="23" y1="24" x2="35" y2="24" stroke="#059669" stroke-width="1.2" stroke-linecap="round" opacity="0.6"/>
    <line x1="23" y1="30" x2="32" y2="30" stroke="#059669" stroke-width="1.2" stroke-linecap="round" opacity="0.6"/>
    <line x1="23" y1="36" x2="34" y2="36" stroke="#059669" stroke-width="1.2" stroke-linecap="round" opacity="0.6"/>
    <!-- Page curve -->
    <path d="M40 6 Q40 0 32 0" fill="none" stroke="#047857" stroke-width="1"/>
    <path d="M0 6 Q0 0 8 0" fill="none" stroke="#047857" stroke-width="1"/>
  </g>
</svg>
